<svg width="791" height="348" viewBox="0 0 791 348" fill="none" xmlns="http://www.w3.org/2000/svg">
<g filter="url(#filter0_b_21_974)">
<rect width="791" height="348" fill="white"/>
<rect x="0.5" y="0.5" width="790" height="347" stroke="white" stroke-opacity="0.1"/>
<path d="M151.644 341.306L22.0492 246.822C22.0492 246.822 5.79552 236.359 2.07366 216.863C-3.15168 189.492 14.078 166.026 14.078 166.026L182.273 288.694C195.248 298.164 198.791 317.537 190.45 332.15C181.883 347.162 164.276 350.474 151.644 341.306Z" fill="#38D200"/>
<path d="M28.8916 145.777C28.8916 145.777 9.04004 132.355 9.04004 101.306C9.04004 70.3637 28.8837 57.1065 28.8837 57.1065L99.7332 5.17932C105.969 0.640148 113.559 -0.939104 120.835 0.789C128.11 2.5171 134.475 7.41102 138.528 14.3941C142.581 21.3772 143.991 29.8775 142.448 38.025C140.905 46.1724 136.535 53.2997 130.299 57.8389L70.5863 101.383L172.329 175.588C172.329 175.588 190.643 187.339 194.251 207.175C199.287 234.847 182.279 257.645 182.279 257.645L28.8916 145.777Z" fill="#0473EA"/>
<path d="M162.248 70.4404C155.595 70.4404 150.861 72.8037 146.242 76.1562L111.653 101.383L146.242 126.609C150.906 129.974 155.798 132.328 162.248 132.328C165.899 132.368 169.521 131.597 172.905 130.06C176.289 128.523 179.367 126.25 181.962 123.373C184.556 120.495 186.616 117.071 188.021 113.296C189.427 109.522 190.151 105.474 190.151 101.384C190.151 97.295 189.427 93.2465 188.021 89.4722C186.616 85.698 184.556 82.2734 181.962 79.3961C179.367 76.5187 176.289 74.2457 172.905 72.7084C169.521 71.1712 165.899 70.4006 162.248 70.4404Z" fill="#38D200"/>
<path d="M28.5146 346.314C35.167 346.314 39.9019 343.95 44.518 340.597L79.1064 315.368L44.518 290.144C39.857 286.78 34.9641 284.425 28.5146 284.425C24.8634 284.385 21.2411 285.156 17.8574 286.694C14.4737 288.231 11.3956 290.504 8.80101 293.381C6.20638 296.258 4.14676 299.683 2.74115 303.457C1.33554 307.231 0.611816 311.28 0.611816 315.369C0.611816 319.458 1.33554 323.507 2.74115 327.281C4.14676 331.055 6.20638 334.482 8.80101 337.357C11.3956 340.236 14.4737 342.508 17.8574 344.045C21.2411 345.583 24.8634 346.352 28.5146 346.314Z" fill="#0473EA"/>
<path d="M306.14 248.092C313.454 248.092 320.273 245.871 325.601 240.734V252.254C319.649 256.836 312.584 258.78 305.145 258.78C286.416 258.78 273.41 244.202 273.41 223.238C273.41 202.413 286.797 187.838 305.394 187.838C312.708 187.838 319.525 190.201 324.98 194.78V207.411C320.146 201.583 313.454 198.528 306.013 198.528C292.995 198.528 283.822 208.663 283.822 223.238C283.822 237.813 293.122 248.092 306.14 248.092Z" fill="#525355"/>
<path d="M346.8 257.533H336.757V167.394L346.8 174.345V200.753C351.388 192.839 358.701 187.841 367.999 187.841C383.372 187.841 391.553 200.472 391.553 217.271V257.533H381.389V219.215C381.389 205.887 376.183 198.809 365.518 198.809C354.238 198.809 346.791 209.635 346.791 223.241L346.8 257.533Z" fill="#525355"/>
<path d="M453.91 245.862C448.83 253.915 441.019 258.774 431.474 258.774C413.622 258.774 400.854 243.919 400.854 223.649C400.854 202.971 413.622 187.833 431.474 187.833C441.019 187.833 448.83 192.83 453.91 201.022V189.082H464.077V257.525H453.91V245.862ZM411.266 223.51C411.266 237.671 420.069 248.084 432.465 248.084C444.986 248.084 453.91 237.671 453.91 223.51C453.91 209.071 444.986 198.523 432.465 198.523C420.069 198.532 411.266 209.08 411.266 223.519V223.51Z" fill="#525355"/>
<path d="M489.739 257.533H479.696V189.091H489.739V203.666C494.573 193.53 502.384 187.841 512.054 187.841V200.753C499.903 198.809 489.739 207.972 489.739 224.907V257.533Z" fill="#525355"/>
<path d="M614.949 227.684H566.723C568.212 240.04 576.89 248.231 589.038 248.231C596.849 248.231 604.412 245.732 610.858 240.596V251.425C604.287 256.423 596.849 258.783 589.038 258.783C569.822 258.783 556.067 244.899 556.067 223.926C556.067 203.379 567.721 187.833 586.193 187.833C603.796 187.833 615.327 202.407 615.327 221.983C615.33 223.891 615.203 225.797 614.949 227.684ZM566.848 218.527H604.66C603.669 206.865 597.098 198.26 586.312 198.26C575.153 198.254 568.458 207.001 566.848 218.521V218.527Z" fill="#525355"/>
<path d="M636.396 257.533H626.354V189.091H636.396V203.666C641.23 193.53 649.038 187.841 658.708 187.841V200.753C646.564 198.809 636.396 207.972 636.396 224.907V257.533Z" fill="#525355"/>
<path d="M718.341 227.684H670.118C671.601 240.04 680.283 248.231 692.43 248.231C700.241 248.231 707.804 245.732 714.25 240.596V251.425C707.679 256.423 700.241 258.783 692.43 258.783C673.214 258.783 659.459 244.899 659.459 223.926C659.459 203.379 671.11 187.833 689.582 187.833C707.185 187.833 718.714 202.407 718.714 221.983C718.72 223.891 718.592 225.797 718.341 227.684ZM670.243 218.527H708.049C707.058 206.865 700.487 198.26 689.704 198.26C678.548 198.254 671.858 207.001 670.243 218.521V218.527Z" fill="#525355"/>
<path d="M778.621 245.779C773.666 253.971 765.73 258.969 756.185 258.969C738.331 258.969 725.562 244.113 725.562 223.844C725.562 203.166 738.331 188.024 756.185 188.024C765.73 188.024 773.666 193.164 778.621 201.491V167.412L788.788 174.365V257.53H778.621V245.779ZM735.977 223.708C735.977 237.869 744.777 248.281 757.176 248.281C769.697 248.281 778.621 237.869 778.621 223.708C778.621 209.269 769.697 198.717 757.176 198.717C744.777 198.715 735.977 209.266 735.977 223.708Z" fill="#525355"/>
<path d="M529.6 234.782C529.6 244.362 534.806 248.11 541.377 248.11C546.482 248.166 551.471 246.417 555.635 243.112V254.08C551.415 257.551 545.592 258.939 540.51 258.939C527.493 258.939 519.557 252.414 519.557 233.949V167.379L529.6 174.33V234.782Z" fill="#525355"/>
<path d="M545.832 188.196C544.106 186.942 542.007 186.507 539.996 186.988C537.985 187.468 536.225 188.823 535.106 190.755C533.987 192.688 533.6 195.039 534.027 197.291C534.456 199.544 535.665 201.514 537.391 202.767L537.606 202.918C538.852 203.812 540.304 204.287 541.784 204.287C543.264 204.287 544.714 203.812 545.962 202.918L555.949 195.746L545.832 188.196Z" fill="#525355"/>
<path d="M294.362 149.393C301.549 149.393 306.758 145.922 306.758 139.675C306.758 135.926 305.024 133.01 300.428 130.928L285.921 124.403C278.482 120.793 274.391 116.073 274.391 107.187C274.391 95.2474 282.947 87.7505 295.343 87.7505C302.529 87.7505 309.225 89.9717 313.937 93.998V105.814C308.36 100.26 301.538 97.0671 295.473 97.0671C289.023 97.0671 284.435 100.399 284.435 105.952C284.435 110.117 286.173 112.617 291.009 114.699L305.515 121.224C313.324 124.973 316.923 130.249 316.923 137.607C316.923 150.657 307.499 158.71 294.238 158.71C286.175 158.71 278.862 156.211 273.534 151.768V139.536C279.978 146.339 287.17 149.393 294.362 149.393Z" fill="#525355"/>
<path d="M336.017 134.538C336.017 144.117 341.221 147.866 347.794 147.866C352.894 147.917 357.877 146.168 362.038 142.868V153.836C357.818 157.306 351.992 158.695 346.91 158.695C333.893 158.695 325.963 152.17 325.963 133.705V74.0354L336.003 67.0757L336.017 134.538Z" fill="#525355"/>
<path d="M418.208 145.783C413.125 153.836 405.314 158.695 395.769 158.695C377.917 158.695 365.148 143.84 365.148 123.57C365.148 102.892 377.917 87.7505 395.769 87.7505C405.314 87.7505 413.125 92.7484 418.208 100.94V89.0087H428.375V157.445H418.208V145.783ZM375.561 123.431C375.561 137.592 384.364 148.004 396.76 148.004C409.283 148.004 418.208 137.592 418.208 123.431C418.208 108.992 409.283 98.4407 396.76 98.4407C384.364 98.4407 375.561 108.992 375.561 123.431Z" fill="#525355"/>
<path d="M454.034 157.445H443.991V89.0086H454.034V100.671C458.622 92.7572 465.936 87.7593 475.233 87.7593C490.607 87.7593 498.788 100.393 498.788 117.192V157.454H488.623V119.139C488.623 105.811 483.417 98.7301 472.755 98.7301C461.472 98.7301 454.026 109.559 454.026 123.165L454.034 157.445Z" fill="#525355"/>
<path d="M561.147 145.505C556.189 153.697 548.253 158.695 538.708 158.695C520.856 158.695 508.087 143.839 508.087 123.57C508.087 102.892 520.856 87.7504 538.708 87.7504C548.253 87.7504 556.189 92.8872 561.147 101.217V74.0265L571.314 67.0757V157.445H561.147V145.505ZM518.5 123.431C518.5 137.592 527.303 148.005 539.699 148.005C552.222 148.005 561.147 137.592 561.147 123.431C561.147 108.992 552.222 98.4406 539.699 98.4406C527.312 98.4406 518.5 108.992 518.5 123.431Z" fill="#525355"/>
<path d="M747.108 145.505C742.15 153.697 734.215 158.695 724.669 158.695C706.815 158.695 694.046 143.839 694.046 123.57C694.046 102.892 706.815 87.7504 724.669 87.7504C734.215 87.7504 742.15 92.8872 747.108 101.217V74.0265L757.272 67.0757V157.445H747.108V145.505ZM704.462 123.431C704.462 137.592 713.262 148.005 725.661 148.005C738.181 148.005 747.108 137.592 747.108 123.431C747.108 108.992 738.181 98.4406 725.661 98.4406C713.27 98.4406 704.462 108.992 704.462 123.431Z" fill="#525355"/>
<path d="M635.283 145.783C630.201 153.836 622.39 158.695 612.844 158.695C594.993 158.695 582.224 143.84 582.224 123.57C582.224 102.892 594.993 87.7505 612.844 87.7505C622.39 87.7505 630.201 92.7484 635.283 100.94V89.0087H645.45V157.445H635.283V145.783ZM592.637 123.431C592.637 137.592 601.44 148.004 613.836 148.004C626.356 148.004 635.283 137.592 635.283 123.431C635.283 108.992 626.356 98.4407 613.836 98.4407C601.431 98.4407 592.637 108.992 592.637 123.431Z" fill="#525355"/>
<path d="M671.11 157.445H661.067V89.0086H671.11V103.586C675.943 93.4513 683.754 87.7593 693.424 87.7593V100.671C681.274 98.7273 671.11 107.89 671.11 124.828V157.445Z" fill="#525355"/>
<path d="M350.17 103.586C351.026 104.212 351.984 104.643 352.99 104.853C353.992 105.063 355.026 105.049 356.024 104.811C357.024 104.573 357.973 104.116 358.815 103.467C359.657 102.818 360.374 101.988 360.928 101.027C361.481 100.065 361.863 98.9901 362.044 97.8639C362.227 96.7376 362.208 95.5823 361.99 94.4639C361.772 93.3459 361.357 92.2867 360.772 91.348C360.188 90.4094 359.445 89.6093 358.583 88.994L358.368 88.8434C357.12 87.9547 355.668 87.4856 354.187 87.4913C352.704 87.497 351.258 87.9775 350.012 88.8757L340.031 96.0745L350.17 103.586Z" fill="#525355"/>
</g>
<defs>
<filter id="filter0_b_21_974" x="-9" y="-9" width="809" height="366" filterUnits="userSpaceOnUse" color-interpolation-filters="sRGB">
<feFlood flood-opacity="0" result="BackgroundImageFix"/>
<feGaussianBlur in="BackgroundImageFix" stdDeviation="4.5"/>
<feComposite in2="SourceAlpha" operator="in" result="effect1_backgroundBlur_21_974"/>
<feBlend mode="normal" in="SourceGraphic" in2="effect1_backgroundBlur_21_974" result="shape"/>
</filter>
</defs>
</svg>
